PathFileType	4	(X/Y/Z)	C:\Users\Willi\Documents\Github\OpenSimMatlabBasic\ExampleData\Trials\dynamic03\marker_experimental.trc
DataRate	CameraRate	NumFrames	NumMarkers	Units	OrigDataRate	OrigDataStartFrame	OrigNumFrames
150.000000	150.000000	2	179	mm	150.000000	141	189
Frame#	Time	LFHD			LBHD			RFHD			RBHD			C7			T10			CLAV			STRN			RBAK			LSHO			LUPA			LELB			LFRA			LWRB			LWRA			LFIN			RSHO			RUPA			RELB			RFRA			RWRB			RWRA			RFIN			SACR			LASI			RASI			LT1			LT2			LT3			LS1			LS2			LS3			LTOE			RT1			RT2			RT3			RS1			RS2			RS3			RHEE			RTOE			SACO			SACA			SACL			SACP			LHEE			RM5D			LM5D			LKNE			RKNE			LANK			RANK			LKJC			RKJC			LAJC			RAJC			LTHI			RTHI			LTIB			RTIB			P_ForcePlate1			P_ForcePlate2			P_ForcePlate3			funktRKJC			funktLKJC			funktRHIP			funktLHIP			LHJC			RHJC			LKNEshank			RKNEshank			LKJCshank			RKJCshank			LHF			COP_FP1			VECTIP_FP1			RawCentreFP1			COP_FP2			VECTIP_FP2			RawCentreFP2			COP_FP3			VECTIP_FP3			RawCentreFP3			LPelvisAngles			RPelvisAngles			LFootProgressAngles			RFootProgressAngles			LHipAngles			RHipAngles			LKneeAngles			RKneeAngles			LAnkleAngles			RAnkleAngles			LFFootAngles			RFFootAngles			LAbsAnkleAngle			RAbsAnkleAngle			RNeckAngles			LNeckAngles			RSpineAngles			LSpineAngles			LShoulderAngles			LElbowAngles			LWristAngles			RShoulderAngles			RElbowAngles			RWristAngles			RThoraxAngles			LThoraxAngles			RHeadAngles			LHeadAngles			LHipPower			LKneePower			LAnklePower			RHipPower			RKneePower			RAnklePower			LWaistPower			RWaistPower			LNeckPower			RNeckPower			LShoulderPower			RShoulderPower			LElbowPower			RElbowPower			LWristPower			RWristPower			F_ForcePlate1			F_ForcePlate2			F_ForcePlate3			LHipForce			RHipForce			LKneeForce			RKneeForce			LAnkleForce			RAnkleForce			LNormalisedGRF			RNormalisedGRF			LGroundReactionForce			RGroundReactionForce			LGRF			RGRF			LWaistForce			RWaistForce			LNeckForce			RNeckForce			LShoulderForce			RShoulderForce			LElbowForce			RElbowForce			LWristForce			RWristForce			Force_FP1			RawForceFP1			Force_FP2			RawForceFP2			Force_FP3			RawForceFP3			LHipMoment			RHipMoment			LKneeMoment			RKneeMoment			LAnkleMoment			RAnkleMoment			LGroundReactionMoment			RGroundReactionMoment			LWaistMoment			RWaistMoment			LNeckMoment			RNeckMoment			LShoulderMoment			RShoulderMoment			LElbowMoment			RElbowMoment			LWristMoment			RWristMoment			RawMomentFP1			RawMomentFP2			RawMomentFP3			
		X1	Y1	Z1	X2	Y2	Z2	X3	Y3	Z3	X4	Y4	Z4	X5	Y5	Z5	X6	Y6	Z6	X7	Y7	Z7	X8	Y8	Z8	X9	Y9	Z9	X10	Y10	Z10	X11	Y11	Z11	X12	Y12	Z12	X13	Y13	Z13	X14	Y14	Z14	X15	Y15	Z15	X16	Y16	Z16	X17	Y17	Z17	X18	Y18	Z18	X19	Y19	Z19	X20	Y20	Z20	X21	Y21	Z21	X22	Y22	Z22	X23	Y23	Z23	X24	Y24	Z24	X25	Y25	Z25	X26	Y26	Z26	X27	Y27	Z27	X28	Y28	Z28	X29	Y29	Z29	X30	Y30	Z30	X31	Y31	Z31	X32	Y32	Z32	X33	Y33	Z33	X34	Y34	Z34	X35	Y35	Z35	X36	Y36	Z36	X37	Y37	Z37	X38	Y38	Z38	X39	Y39	Z39	X40	Y40	Z40	X41	Y41	Z41	X42	Y42	Z42	X43	Y43	Z43	X44	Y44	Z44	X45	Y45	Z45	X46	Y46	Z46	X47	Y47	Z47	X48	Y48	Z48	X49	Y49	Z49	X50	Y50	Z50	X51	Y51	Z51	X52	Y52	Z52	X53	Y53	Z53	X54	Y54	Z54	X55	Y55	Z55	X56	Y56	Z56	X57	Y57	Z57	X58	Y58	Z58	X59	Y59	Z59	X60	Y60	Z60	X61	Y61	Z61	X62	Y62	Z62	X63	Y63	Z63	X64	Y64	Z64	X65	Y65	Z65	X66	Y66	Z66	X67	Y67	Z67	X68	Y68	Z68	X69	Y69	Z69	X70	Y70	Z70	X71	Y71	Z71	X72	Y72	Z72	X73	Y73	Z73	X74	Y74	Z74	X75	Y75	Z75	X76	Y76	Z76	X77	Y77	Z77	X78	Y78	Z78	X79	Y79	Z79	X80	Y80	Z80	X81	Y81	Z81	X82	Y82	Z82	X83	Y83	Z83	X84	Y84	Z84	X85	Y85	Z85	X86	Y86	Z86	X87	Y87	Z87	X88	Y88	Z88	X89	Y89	Z89	X90	Y90	Z90	X91	Y91	Z91	X92	Y92	Z92	X93	Y93	Z93	X94	Y94	Z94	X95	Y95	Z95	X96	Y96	Z96	X97	Y97	Z97	X98	Y98	Z98	X99	Y99	Z99	X100	Y100	Z100	X101	Y101	Z101	X102	Y102	Z102	X103	Y103	Z103	X104	Y104	Z104	X105	Y105	Z105	X106	Y106	Z106	X107	Y107	Z107	X108	Y108	Z108	X109	Y109	Z109	X110	Y110	Z110	X111	Y111	Z111	X112	Y112	Z112	X113	Y113	Z113	X114	Y114	Z114	X115	Y115	Z115	X116	Y116	Z116	X117	Y117	Z117	X118	Y118	Z118	X119	Y119	Z119	X120	Y120	Z120	X121	Y121	Z121	X122	Y122	Z122	X123	Y123	Z123	X124	Y124	Z124	X125	Y125	Z125	X126	Y126	Z126	X127	Y127	Z127	X128	Y128	Z128	X129	Y129	Z129	X130	Y130	Z130	X131	Y131	Z131	X132	Y132	Z132	X133	Y133	Z133	X134	Y134	Z134	X135	Y135	Z135	X136	Y136	Z136	X137	Y137	Z137	X138	Y138	Z138	X139	Y139	Z139	X140	Y140	Z140	X141	Y141	Z141	X142	Y142	Z142	X143	Y143	Z143	X144	Y144	Z144	X145	Y145	Z145	X146	Y146	Z146	X147	Y147	Z147	X148	Y148	Z148	X149	Y149	Z149	X150	Y150	Z150	X151	Y151	Z151	X152	Y152	Z152	X153	Y153	Z153	X154	Y154	Z154	X155	Y155	Z155	X156	Y156	Z156	X157	Y157	Z157	X158	Y158	Z158	X159	Y159	Z159	X160	Y160	Z160	X161	Y161	Z161	X162	Y162	Z162	X163	Y163	Z163	X164	Y164	Z164	X165	Y165	Z165	X166	Y166	Z166	X167	Y167	Z167	X168	Y168	Z168	X169	Y169	Z169	X170	Y170	Z170	X171	Y171	Z171	X172	Y172	Z172	X173	Y173	Z173	X174	Y174	Z174	X175	Y175	Z175	X176	Y176	Z176	X177	Y177	Z177	X178	Y178	Z178	X179	Y179	Z179	

142	0.9400000000000001	480.655029296875	1231.605224609375	-349.0539245605468	367.1817626953125	1274.310791015625	-397.3934326171874	465.071044921875	1241.256225585938	-236.6773376464843	340.2937927246094	1300.970336914062	-234.613296508789	250.2743835449219	1149.51123046875	-308.4188232421874	212.03955078125	995.8311767578125	-306.5092163085937	357.9601745605469	1096.77880859375	-316.8343505859374	384.14208984375	1044.436157226562	-319.4492492675781	217.6630706787109	1073.058959960938	-223.2434692382812	284.041259765625	1118.868041992188	-448.5840454101562	237.388427734375	934.5693359375	-511.1873474121093	237.6157684326172	871.0880126953125	-533.179443359375	249.9720153808594	798.9454345703125	-556.9450073242188	293.4646301269531	677.4042358398438	-574.2593383789062	360.6186828613281	700.5881958007812	-579.630615234375	361.9539489746094	646.9812622070312	-614.5569458007812	290.9826049804688	1125.301025390625	-179.4592895507812	269.2320251464844	1020.603698730469	-129.3782043457031	252.1262664794922	867.68115234375	-101.3005142211913	270.4422302246094	716.1213989257812	-91.92605590820308	281.1613159179688	671.0701904296875	-85.51905822753902	350.4290771484375	692.11572265625	-84.89850616455074	358.8885498046875	638.6162719726562	-47.229808807373	224.3705749511719	795.4389038085938	-304.1859130859374	359.6383666992188	756.5423583984375	-412.9057006835937	359.874267578125	762.3076782226562	-186.408462524414	331.797607421875	556.0468139648438	-438.1118774414062	277.8857727050781	446.7655944824219	-416.3710021972656	343.2077331542969	456.3648376464844	-418.0960693359375	277.4602661132812	228.8227996826172	-412.9452819824219	177.1513824462891	158.076171875	-398.1409606933594	320.9063720703125	143.4183197021485	-392.5687561035156	355.8431701660156	48.34624099731447	-352.6529541015625	399.9376220703125	572.4718627929688	-143.4482879638672	406.0098571777344	456.2644348144531	-156.7423706054687	449.5354614257812	482.7311096191406	-152.6358337402343	361.0015563964844	287.4832763671875	-150.2011260986328	249.2825622558594	243.0702819824219	-181.4688110351562	381.6184692382812	191.4419860839844	-156.5714569091797	252.7648010253906	131.2935485839844	-238.3158721923828	381.1510925292969	63.83515930175783	-184.2449645996094	261.2225646972656	785.7061767578125	-300.2234191894531	266.1492614746094	784.39208984375	-300.1950988769531	261.2172546386719	785.576416015625	-305.3207702636718	274.3662719726562	834.9567260742188	-301.4908447265624	204.1804809570312	52.30048751831057	-330.0834045410156	352.8614196777344	57.69425964355469	-158.748291015625	342.7216796875	25.61493873596194	-387.5418090820312	318.7584533691406	391.8494567871094	-402.8116149902344	463.7035827636719	426.7707214355469	-161.2306671142578	242.9720153808594	53.84177780151369	-371.8598327636719	284.8482360839844	130.162109375	-186.7633972167969	317.1763916015625	390.203125	-350.6163024902344	463.2305297851562	419.0051879882812	-213.421646118164	256.5046691894531	63.51616287231447	-336.1571044921875	309.2512512207031	127.4648132324219	-217.6748352050781	318.1449890136719	544.3590087890625	-442.0711669921874	389.8840026855469	571.7470703125	-135.103042602539	255.6950378417969	213.5267486572266	-431.0595703125	330.641845703125	284.7403564453125	-141.6585540771484	-256.7200012207031	0.07899999618532701	-396.4200134277344	312.0087890625	2.056271596832382e-14	-335.8146362304688	950.1600341796875	1.404999971389795	-394.6300048828125	0	0	0	0	0	0	0	0	0	0	0	0	313.4675903320312	697.5809936523438	-349.1726379394531	312.9757080078125	699.6521606445312	-247.2146911621093	325.1170654296875	397.5611877441406	-396.6190185546875	462.6129760742188	422.7997131347656	-162.2358703613281	319.2307434082031	396.5899658203125	-344.7155456542969	467.0817260742188	416.3251953125	-214.4130554199218	0.2516745030879974	-6.589967727661133	-0.3290186822414402	-256.7200012207031	0.07899999618532701	-396.4200134277344	-256.7201232910156	-0.2513438165187593	-396.4246215820312	-256.7200012207031	0.07899999618532701	-396.4200134277344	312.0087890625	2.056271596832382e-14	-335.8146362304688	306.0316162109375	291.0293884277344	-321.5936889648438	254.2699890136719	-0.2560999989509441	-231.3000030517578	950.1600341796875	1.404999971389795	-394.6300048828125	950.1600341796875	1.404999971389795	-394.6300048828125	254.2699890136719	-0.2560999989509441	-231.3000030517578	14.94230365753174	0.3182902336120604	1.424200057983398	14.94230365753174	-0.3182902336120604	-1.424200057983398	3.239710807800293	-7.562330722808838	1.273534297943115	33.3119010925293	-17.31670761108398	2.551758050918578	15.63098907470703	1.834817171096802	1.726353645324707	43.03202438354492	3.694658517837524	4.801735401153564	11.12656116485596	-19.35824394226074	-3.096164703369142	55.96007919311523	-33.81225204467773	-7.803610801696779	7.665334224700928	10.2902946472168	1.122915387153626	-5.284318923950195	18.82829666137695	-1.498915672302245	-7.951386796473776e-16	-9.939233495592221e-17	1.987846699118444e-16	9.541664367526768e-15	-6.361109437179021e-15	-7.95138679647378e-16	13.17304992675781	0	0	-0.3515645861625671	0	0	19.69959259033203	12.75949382781982	6.81304168701172	19.69959259033203	-12.75949382781982	-6.81304168701172	-11.68311500549316	-4.645463943481445	-0.7325636148452762	-11.68311500549316	4.645463943481445	0.7325636148452762	-10.69875526428223	-5.88856029510498	-15.60089492797852	42.9903564453125	-5.788609609008732e-13	-3.544501114593078e-29	8.902653694152832	91.08457183837891	-6.530428409576411	-12.71306419372559	-4.82434320449829	-12.2314977645874	38.0689811706543	-1.782800252911332e-12	1.838758180140839e-15	17.90187072753906	91.68978118896484	-14.45349693298339	3.348150730133057	4.376946449279785	0.1958090364933017	3.348150730133057	-4.376946449279785	-0.1958090364933017	-23.85762786865234	-10.13476467132568	-3.3340482711792	-23.85762786865234	10.13476467132568	3.3340482711792	0	-0.2185380607843399	-1.338159683157058e-17	0	-0.07319946587085724	-4.482174578902062e-18	0	-0.5567793250083923	-3.409290091014758e-17	0	-0.004346196074038744	-2.66127755526917e-19	0	-0.08808155357837677	-5.39343963268426e-18	0	0.006855160463601351	4.19757515969544e-19	0	0.02936535514891148	1.798109409446984e-18	0	0.02936535514891148	1.798109409446984e-18	0	-0.02136298641562462	-1.308105646706154e-18	0	-0.02136298641562462	-1.308105646706154e-18	0	-0.01031859777867794	-6.318318870673465e-19	0	-0.01216060854494572	-7.446225165125863e-19	0	-0.001360973343253136	-8.333558242699123e-20	0	0.00123748613987118	7.577417200912272e-20	0	0.0004418909957166761	2.705801967382321e-20	0	0.0009263132815249264	5.672032976135911e-20	-256.7201232910156	-0.2513438165187593	-396.4246215820312	306.0316162109375	291.0293884277344	-321.5936889648438	950.1600341796875	1.404999971389795	-394.6300048828125	0.2516745030879974	-6.589967727661133	-0.3290186822414402	0.07982305437326431	0.9987096190452576	0.09557663649320608	1.708921313285828	-7.236987113952637	-0.183866068720818	-0.2056450545787811	0.3740395903587341	0.1372375339269638	7.842202186584473	0.6550866365432739	-0.4828208088874816	-0.1872442960739136	-0.03771287947893143	-0.006734572816640141	-1.607757806777954	81.15074157714844	-3.796325683593745	0	0	0	-0.1577210426330566	7.960887432098389	0.3724195361137395	0	0	0	-0.1577210426330566	7.960887432098389	0.3724195361137395	0	0	0	1.138759136199951	-4.444235324859619	-0.3695254623889926	1.138759136199951	-4.444235324859619	-0.3695254623889926	0.2056519091129303	-1.461586475372314	0.1740458011627196	0.2056519091129303	-1.461586475372314	0.1740458011627196	0.07789447158575058	0.3383345305919647	0.04058329388499262	0.05501912906765938	0.3512897193431854	-0.1150069013237953	-0.07451659440994263	0.1501825004816055	0.01191221922636033	-0.08460484445095062	0.1377349644899368	-0.05129984021186828	0.007297841366380453	0.04338878020644188	0.02144232764840126	0.01905703358352184	0.02489729411900044	-0.03513528406620026	-256.7201232910156	-0.2513438165187593	-396.4246215820312	-0.0001322387397522107	-0.3303438127040863	-0.004620724823325892	306.0316162109375	291.0293884277344	-321.5936889648438	-5.977182865142822	291.0293884277344	14.22091770172121	950.1600341796875	1.404999971389795	-394.6300048828125	-5.977182865142822	291.0293884277344	14.22091770172121	-147.9337158203125	4.029987812042259	-370.9327697753906	6.192459106445312	0.00176738400477969	-8.647832870483398	174.0861206054688	51.09019851684572	-218.6974487304688	-14.9157133102417	-0.1549043208360666	-10.5297679901123	419.5709228515625	38.38877105712891	-83.65856170654297	-8.469229698181152	-0.5488696098327637	-0.04478786140680317	840.2334594726562	-14.60536098480227	464.5760803222656	nan	nan	nan	-232.6270751953125	46.60678482055664	-27.3018684387207	-232.6270751953125	-46.60678482055664	27.3018684387207	27.76761817932129	31.96567726135254	-28.70890617370605	27.76761817932129	-31.96567726135254	28.70890617370605	4.438357830047607	-0.879800736904144	-5.536725044250488	-5.921613216400146	-3.884667873382567	-24.24558448791504	-8.570063591003418	0.03648385033011445	-1.329403758049011	-12.98635387420654	0.2396365702152256	-6.606003284454346	0.3523534536361694	-6.493866676759563e-16	-0.7829763889312744	0.8271209001541138	4.637801609570945e-16	-1.979868650436401	7.805319786071777	0.6023484468460092	-15.10709571838379	30416.822265625	-400.8731689453135	16803.6875	30416.822265625	-400.8731689453135	16803.6875	
143	0.9466666666666668	488.7807922363281	1231.086181640625	-347.6351928710937	375.7443237304688	1273.624267578125	-397.1280822753906	472.1391906738281	1240.943603515625	-235.4100341796874	347.2891845703125	1300.603515625	-234.6389770507812	258.107666015625	1149.024047851562	-308.4912414550781	219.5755004882812	995.4977416992188	-306.3845520019531	365.7645263671875	1096.067260742188	-316.5572204589843	391.8046569824219	1043.585571289062	-319.2683105468749	225.2123413085938	1072.555786132812	-223.3448181152343	292.5519104003906	1118.222900390625	-448.6135253906249	248.6627197265625	933.488525390625	-512.5061645507811	250.0237579345703	870.1127319335938	-534.6710205078125	263.6390686035156	798.257568359375	-558.4891357421875	308.73291015625	677.3359375	-575.814208984375	375.8255920410156	701.1773071289062	-579.1768188476562	378.6012878417969	647.9927978515625	-614.5828857421875	298.5973510742188	1124.430908203125	-179.2795867919921	276.1482238769531	1019.705871582031	-129.4367523193359	258.1497497558594	866.8111572265625	-101.7244796752929	275.7295227050781	715.185791015625	-92.62981414794918	286.2234191894531	670.0418701171875	-86.29318237304683	355.5407104492188	690.8431396484375	-85.17626190185543	363.5419311523438	637.4273681640625	-47.3378868103027	231.5422973632812	794.789306640625	-303.5195312499999	366.1150207519531	755.9691162109375	-413.1131896972656	367.6807861328125	761.6497802734375	-186.5738372802734	336.8097534179688	555.5381469726562	-437.9614868164062	282.1218566894531	446.6998291015625	-416.1240539550781	347.4927368164062	455.75732421875	-418.1041259765625	279.6041870117188	228.6080474853516	-412.8349914550781	178.5078277587891	158.9642639160157	-398.0294494628906	322.088623046875	142.7523040771485	-392.3440246582031	356.0513000488281	48.28368759155276	-352.6061706542969	408.8623657226562	572.4024047851562	-144.0003356933593	415.5653686523438	456.2391052246094	-157.0592956542968	458.9860534667969	482.9608459472656	-153.5087585449218	375.9103393554688	284.2431640625	-150.0699768066406	265.9219360351562	235.0307006835938	-180.5839080810547	400.5022583007812	189.0873565673828	-156.5219573974609	273.8255004882812	123.2385635375977	-237.6132202148438	405.2575378417969	61.98558044433595	-182.9961853027344	268.3585205078125	785.0755615234375	-299.8210754394531	273.2854919433594	783.7622680664062	-299.8222045898437	268.3232727050781	784.94775390625	-304.9183654785156	281.4867553710938	834.3286743164062	-301.1468200683593	204.4267883300781	52.65773010253908	-329.8437194824219	377.2216186523438	54.75872039794923	-157.5830230712891	342.7922058105469	25.57707405090335	-387.5305786132812	322.5919189453125	391.41162109375	-402.7871704101562	473.4269409179688	427.0943908691406	-162.1147308349609	243.1609344482422	54.05813598632815	-371.6035766601562	306.2542724609375	123.7988357543945	-186.0106048583984	321.2110595703125	389.7193603515625	-350.5876159667969	472.4298095703125	419.1880798339844	-214.2771759033203	256.7738342285156	63.61802673339846	-335.9005126953125	330.5455017089844	122.1066436767578	-217.0810394287109	323.2143249511719	543.7984008789062	-441.9939270019531	399.1820678710938	571.7713623046875	-135.5541687011718	257.7581481933594	213.6122131347657	-430.9703674316406	346.0806884765625	279.9902954101562	-141.5173645019531	-256.7200012207031	0.07899999618532701	-396.4200134277344	313.2621154785156	2.068340728731877e-14	-337.7856750488281	950.1600341796875	1.404999971389795	-394.6300048828125	0	0	0	0	0	0	0	0	0	0	0	0	320.3285522460938	696.9769897460938	-349.1098327636718	320.4352416992188	699.0093994140625	-247.1499481201171	329.1053771972656	396.8271789550781	-396.6390686035156	471.6136169433594	423.7319030761719	-162.8776702880859	323.171630859375	395.9720458984375	-344.7389526367188	476.0089111328125	417.3993530273438	-215.0785217285156	0.2737200260162354	-6.728160381317139	-0.3193558752536778	-256.7200012207031	0.07899999618532701	-396.4200134277344	-256.7201232910156	-0.2513438165187593	-396.4246215820312	-256.7200012207031	0.07899999618532701	-396.4200134277344	313.2621154785156	2.068340728731877e-14	-337.7856750488281	308.260009765625	296.6942749023438	-323.9408569335938	254.2699890136719	-0.2560999989509441	-231.3000030517578	950.1600341796875	1.404999971389795	-394.6300048828125	950.1600341796875	1.404999971389795	-394.6300048828125	254.2699890136719	-0.2560999989509441	-231.3000030517578	14.92508697509766	-0.01260450948029766	1.489927649497986	14.92508697509766	0.01260450948029766	-1.489927649497986	3.337974309921265	-7.676106452941895	1.20495581626892	30.62201309204102	-17.64319038391113	2.212079524993896	15.09675216674805	1.920607089996338	1.710816979408264	43.33853530883789	4.019501209259033	4.819703578948975	11.26785850524902	-19.06534004211426	-3.09819793701172	53.91230773925781	-34.22858047485352	-8.038698196411135	8.231460571289062	10.12550830841064	1.183338642120362	-4.953139305114746	18.21322250366211	-1.353314757347106	1.192708045940846e-15	9.939233892638914e-16	6.212021182899327e-17	-6.361109437179021e-15	5.565970810471202e-15	-3.975693398236884e-16	13.72900676727295	0	0	-0.02303565293550491	0	0	19.53536987304688	13.23764038085938	6.84139633178711	19.53536987304688	-13.23764038085938	-6.84139633178711	-11.54597759246826	-4.226678371429443	-0.7983967661857607	-11.54597759246826	4.226678371429443	0.7983967661857607	-9.647110939025879	-5.263280868530273	-15.92977905273438	42.93760681152344	-1.52110030300634e-12	7.951386796472844e-16	9.142393112182617	91.78017425537109	-6.49695205688476	-12.90882968902588	-4.922822475433349	-12.05630970001221	38.11053085327148	8.180983017760934e-13	3.62782009023359e-15	17.94955635070801	91.66342163085938	-14.77461624145507	3.470086336135864	4.291182041168213	0.1677896827459338	3.470086336135864	-4.291182041168213	-0.1677896827459338	-23.85520553588867	-10.67436027526855	-3.219229698181153	-23.85520553588867	10.67436027526855	3.219229698181153	0	-0.264672726392746	-1.620653035992398e-17	0	-0.07556948065757751	-4.627296130026506e-18	0	-0.5899603962898254	-3.612465554700194e-17	0	-0.004290486685931683	-2.627165393355285e-19	0	-0.1163889914751053	-7.126770293298813e-18	0	0.006115510128438473	3.744669951972697e-19	0	0.02858306095004082	1.75020770511506e-18	0	0.02858306095004082	1.75020770511506e-18	0	-0.01352250110358	-8.280143846482898e-19	0	-0.01352250110358	-8.280143846482898e-19	0	-0.01428101770579815	-8.74460131098619e-19	0	-0.01243155356496572	-7.612131140882072e-19	0	-0.001533649978227913	-9.390897684246111e-20	0	0.001305255107581615	7.992382447852797e-20	0	0.0003996413142886013	2.447097281752885e-20	0	0.0008329172851517797	5.100147436078151e-20	-256.7201232910156	-0.2513438165187593	-396.4246215820312	308.2600402832031	296.6942749023438	-323.9408569335938	950.1600341796875	1.404999971389795	-394.6300048828125	0.2737200260162354	-6.728160381317139	-0.3193558454513554	0.08886925131082535	1.056383490562439	0.09999995678663261	1.78432309627533	-7.37477445602417	-0.1648514270782475	-0.2259813696146011	0.4166119694709778	0.1490582078695298	7.998801708221436	0.6497722864151001	-0.4663438200950622	-0.2020588964223862	-0.04553375393152237	-0.007111163809895518	-1.433710336685181	83.14109802246094	-3.882613420486445	0	0	0	-0.1406469941139221	8.15614128112793	0.3808843791484838	0	0	0	-0.1406469941139221	8.15614128112793	0.3808843791484838	0	0	0	1.119088292121887	-4.553154468536377	-0.3815298080444339	1.119088292121887	-4.553154468536377	-0.3815298080444339	0.1870923042297363	-1.501022815704346	0.1654376834630965	0.1870923042297363	-1.501022815704346	0.1654376834630965	0.08240374177694321	0.3477091193199158	0.03897165879607203	0.05613276362419128	0.3601558804512024	-0.1175160259008407	-0.07432600855827332	0.155309647321701	0.01102495379745961	-0.08633930236101151	0.1406707763671875	-0.0515136495232582	0.007576736155897379	0.04455413296818733	0.02153731882572174	0.01881493628025055	0.02544083446264267	-0.03543435409665108	-256.7201232910156	-0.2513438165187593	-396.4246215820312	-0.0001322387397522107	-0.3303438127040863	-0.004620724823325892	308.2600402832031	296.6942749023438	-323.9408569335938	-5.00206995010376	296.6942749023438	13.84482574462892	950.1600341796875	1.404999971389795	-394.6300048828125	-5.00206995010376	296.6942749023438	13.84482574462892	-167.6108245849609	8.170295715332053	-350.25244140625	9.149081230163574	-0.3689351677894586	-9.543993949890137	178.6433563232422	51.67169570922853	-198.0428314208984	-18.0874080657959	0.3321444690227517	-13.37516689300537	440.189453125	40.1688346862793	-68.18567657470703	-9.00965404510498	-0.5484395623207092	-0.01839587651193145	870.7391357421875	-18.60045242309574	501.0166625976562	nan	nan	nan	-231.8522796630859	49.84803771972656	-18.10263633728027	-231.8522796630859	-49.84803771972656	18.10263633728027	44.58521270751953	30.43146324157715	-25.4772777557373	44.58521270751953	-30.43146324157715	25.4772777557373	5.819869995117188	-0.8519339561462399	-5.027069091796875	-5.917717933654785	-3.764042377471922	-24.44576835632324	-8.518264770507812	0.03389826044440277	-1.287065148353577	-13.01118946075439	0.2661294043064121	-6.438049793243408	0.3682281970977783	-2.947053392631063e-16	-0.7813327312469482	0.7841651439666748	7.335173367235194e-17	-1.997101306915283	7.805319786071777	0.6023484468460092	-15.10709571838379	31593.689453125	-611.3593139648448	17502.62109375	31593.689453125	-611.3593139648448	17502.62109375	
